<svg xmlns="http://www.w3.org/2000/svg" width="337" height="247" viewBox="0 0 337 247" class="speakerJsFile" fill="none">
	<style>
		.bg-color-1{
		animation: changeColor 5s infinite;
		animation-delay: 2s;
		transition: all 0.2s ease-in-out;
		}
		
		.bg-color-2{
		animation: changeColor 5s infinite;
		animation-delay: 1s;
		transition: all 0.2s ease-in-out;
		}
		
		.speaker-color-beat{
		animation: changeColor 5s infinite;
		animation-delay: 1s;
		transition: all 0.2s ease-in-out;
		}
		
		@keyframes changeColor {
		0% {
		fill: #3AEEE6;
		}
		
		25% {
		fill: green;
		}
		
		50% {
		fill: red;
		}
		
		75% {
		fill: yellow;
		}
		
		100% {
		fill: #3AEEE6;
		}
		}
	</style>
	<path d="M97.8442 90.2328V95.2508C97.8442 101.261 102.717 106.133 108.727 106.133C114.737 106.133 119.609 101.261 119.609 95.2508V90.2328H97.8442Z" fill="#2F4CA3" />
	<path class="bg-color-1" d="M108.727 1.73871C134.716 1.73871 155.785 22.8074 155.785 48.797C155.785 74.7866 134.716 95.8554 108.727 95.8554C82.7372 95.8554 61.6685 74.7866 61.6685 48.797C61.6685 22.8074 82.7372 1.73871 108.727 1.73871Z" fill="#A5FFFA" />
	<path d="M108.727 95.8554C107.162 95.8554 105.616 95.7772 104.09 95.628C127.903 93.2988 146.512 73.222 146.512 48.797C146.512 24.3721 127.903 4.29556 104.09 1.96636C105.616 1.81706 107.162 1.73894 108.727 1.73894C134.716 1.73894 155.785 22.8077 155.785 48.7973C155.785 74.7869 134.716 95.8554 108.727 95.8554V95.8554Z" fill="#6EFFF7" class="bg-color-2" />
	<path d="M108.727 74.2736V48.7971H134.344C134.319 57.0539 133.26 64.8768 131.384 71.88C124.505 73.4154 116.826 74.2736 108.727 74.2736V74.2736Z" fill="#3AEEE6" />
	<path d="M83.1077 48.7971C83.1188 40.5499 84.1609 32.7321 86.0188 25.7278C92.912 24.185 100.607 23.3205 108.727 23.3205V48.7971H83.1077Z" fill="#3AEEE6" class="bg-color-2" />
	<path d="M120.692 94.3184C125.281 88.8286 128.995 80.8019 131.384 71.8802C140.096 69.9361 148.32 66.3925 153.717 62.6315C148.962 78.1127 136.437 90.1906 120.692 94.3184V94.3184Z" fill="#3AEEE6" />
	<path d="M142.147 68.6012C146.634 66.8532 150.636 64.7781 153.717 62.6315C148.962 78.1127 136.436 90.1906 120.692 94.3184C122.121 92.6088 123.464 90.6534 124.71 88.5015C132.26 83.6889 138.345 76.7841 142.147 68.6012Z" fill="#0DDED5" />
	<path d="M134.345 48.7971C134.345 48.6951 134.347 48.594 134.347 48.4917C134.347 40.3763 133.346 32.6763 131.554 25.7529C140.319 27.7269 148.215 30.8017 153.604 34.6037C155.019 39.0824 155.785 43.85 155.785 48.7971H134.345Z" fill="#3AEEE6" class="bg-color-2" />
	<path d="M146.512 48.7971C146.512 43.85 145.588 35.0384 142.25 29.2018C141.832 28.9072 141.411 28.6533 140.987 28.4273C145.904 30.1426 150.242 32.2314 153.604 34.6035C155.02 39.0822 155.785 43.8498 155.785 48.7968H146.512V48.7971Z" fill="#0DDED5" class="bg-color-2" />
	<path d="M108.727 23.3205V1.7387C112.918 1.7387 116.98 2.28953 120.848 3.3177C125.475 8.89856 129.199 16.6533 131.554 25.7526C124.631 24.1936 116.893 23.3205 108.727 23.3205V23.3205Z" fill="#3AEEE6" class="bg-color-2" />
	<path d="M96.2995 94.1934C91.8449 88.6557 88.2515 80.6721 85.9464 71.8526C92.8575 73.4051 100.579 74.2736 108.727 74.2736V95.8554C104.425 95.8554 100.259 95.2749 96.2995 94.1934Z" fill="#3AEEE6" />
	<path d="M63.9121 63.1893C62.4562 58.6531 61.6687 53.8174 61.6687 48.7971H83.1077C83.1077 48.8411 83.1065 48.8847 83.1065 48.929C83.1065 57.1163 84.1245 64.8819 85.9465 71.8528C77.4846 69.9518 69.3291 66.8258 63.9121 63.1893V63.1893Z" fill="#3AEEE6" />
	<path d="M63.7144 35.0384C68.4333 19.5813 80.8944 7.50435 96.5782 3.32422C92.042 8.82926 88.3749 16.8448 86.0188 25.7276C76.871 27.7749 69.1388 31.0189 63.7144 35.0384V35.0384Z" fill="#3AEEE6" class="bg-color-2" />
	<path d="M157.524 48.797C157.524 71.3474 142.147 90.371 121.329 95.9409C121 101.998 116.382 106.93 110.466 107.749V112.322C110.466 114.57 106.988 114.57 106.988 112.322V107.749C101.077 106.931 96.4618 102.007 96.1264 95.9572C93.0446 95.1346 90.0422 94.0056 87.1362 92.5694C85.1207 91.5735 86.661 88.457 88.677 89.4518C89.8343 90.0237 91.0082 90.5428 92.1971 91.0101C88.9739 86.0179 86.386 79.9861 84.5483 73.3087C77.9504 71.7476 72.013 69.5489 67.1272 66.8119C70.2124 73.9052 75.1478 80.1952 81.3031 84.8808C83.0919 86.2423 80.9855 89.0099 79.1969 87.6479C67.1543 78.4806 59.9297 63.9305 59.9297 48.797C59.9297 22.2388 82.173 -1.66882e-05 108.727 -1.66882e-05C135.26 0.000215142 157.524 22.2369 157.524 48.797V48.797ZM133.147 33.2401C132.202 33.4137 131.296 32.7896 131.122 31.8451C130.832 30.2708 130.499 28.7256 130.128 27.2122C124.026 25.9212 117.369 25.1798 110.465 25.0731V47.0583H132.592C132.556 44.6712 132.437 42.2861 132.226 39.949C132.03 37.773 135.484 37.3562 135.69 39.636C135.91 42.0763 136.034 44.5668 136.07 47.0583H154.01C153.866 43.2674 153.255 39.5943 152.232 36.0951C147.492 32.7069 141.184 29.9891 133.907 28.099C134.135 29.1255 134.348 30.1644 134.541 31.215C134.716 32.1595 134.091 33.066 133.147 33.2401V33.2401ZM110.466 3.51407V21.595C116.954 21.6931 123.249 22.3403 129.111 23.4698C126.903 16.093 123.729 9.67287 119.867 4.86471C116.842 4.09712 113.696 3.63671 110.466 3.51407ZM98.0387 4.75389C93.984 9.60216 90.7326 16.0366 88.4723 23.4397C94.2928 22.3278 100.542 21.6919 106.988 21.595V3.51407C103.918 3.63068 100.925 4.05353 98.0387 4.75389ZM63.4438 47.0583H81.3864C81.5111 40.4546 82.2963 34.041 83.6608 28.0645C76.3338 29.9553 69.9884 32.6853 65.2217 36.0951C64.1982 39.5943 63.5876 43.2674 63.4438 47.0583V47.0583ZM119.229 92.8856C123.346 88.0453 126.646 81.5953 128.938 74.1496C123.116 75.2624 116.878 75.9013 110.466 75.9989V94.08C113.47 93.966 116.4 93.5593 119.229 92.8856V92.8856ZM152.225 61.522C153.253 58.0158 153.866 54.3352 154.01 50.5358H136.063C135.927 57.1476 135.134 63.5563 133.761 69.5215C141.012 67.6514 147.322 64.9672 152.068 61.6203C152.119 61.5844 152.172 61.5517 152.225 61.522ZM132.584 50.5358H110.466V72.5205C117.299 72.4141 123.91 71.6806 129.982 70.4041C131.538 64.2393 132.437 57.5139 132.584 50.5358V50.5358ZM106.988 50.5358H84.8589C84.9753 57.4816 85.8463 64.2057 87.3697 70.3877C93.4633 71.6748 100.107 72.4143 106.988 72.5207V50.5358H106.988ZM84.8647 47.0583H106.988V25.0729C100.119 25.1784 93.5023 25.9098 87.4357 27.1844C85.8904 33.3615 84.9999 40.0916 84.8647 47.0583ZM150.304 66.82C145.395 69.5649 139.424 71.771 132.789 73.3324C130.89 80.0809 128.217 86.1459 124.89 91.1349C136.272 86.7751 145.46 77.9532 150.304 66.82ZM108.727 104.395C113.256 104.395 117.025 101.084 117.745 96.7554C114.821 97.3039 111.807 97.5941 108.727 97.5941C105.665 97.5941 102.656 97.3134 99.7105 96.7649C100.434 101.088 104.201 104.395 108.727 104.395V104.395ZM97.7788 92.7883C100.775 93.5318 103.85 93.9641 106.988 94.0805V75.9991C100.522 75.901 94.242 75.2554 88.3897 74.1301C90.6058 81.494 93.7974 87.917 97.7788 92.7883V92.7883ZM83.5992 69.5037C82.2548 63.5255 81.4888 57.1191 81.3817 50.5358H63.4434C63.5822 54.288 64.1715 57.9483 65.2048 61.4898C69.9553 64.8875 76.2937 67.611 83.5992 69.5037ZM67.1513 30.7699C72.0529 28.0236 78.0026 25.8213 84.6225 24.262C86.4954 17.5507 89.13 11.5039 92.4094 6.51813C81.1007 10.8974 71.9745 19.6889 67.1513 30.7699V30.7699ZM125.411 6.66024C128.563 11.6154 131.139 17.6307 132.963 24.296C139.528 25.8537 145.434 28.0438 150.302 30.7692C145.531 19.8083 136.55 11.0863 125.411 6.66024V6.66024Z" fill="black" class="discoball-skeleton" />
	<path d="M270 211.276C268.951 218.205 263.604 233.103 250.602 237.261C234.35 242.458 244.835 219.071 216 204" stroke="#2A2A2A" stroke-width="5" class="mic-coord" />
	<mask id="mask0" mask-type="alpha" maskUnits="userSpaceOnUse" x="0" y="39" width="218" height="208">
		<rect y="39" width="218" height="208" fill="#2B2B2B" />
	</mask>
	<g mask="url(#mask0)" class="speaker-box-container">
		<rect y="39" width="218" height="208" fill="#2B2B2B" />
		<circle cx="109" cy="143" r="113.5" stroke="#363636" stroke-width="23" />
		<circle cx="109" cy="143" r="72" stroke="#393939" stroke-width="3" />
		<circle cx="109" cy="143" r="55.5" stroke="#393939" stroke-width="17" />
		<circle class="speaker-color-beat-default" cx="109" cy="143" r="36" fill="#363636" />
		<circle class="speaker-color-beat" cx="109" cy="143" r="36" fill="#3AEEE6" />
		<circle cx="109" cy="143" r="24" fill="#2B2B2B" />
	</g>
	<path d="M22 12C22 8.68629 24.6863 6 28 6H33C36.3137 6 39 8.68629 39 12V39H22V12Z" fill="#C4C4C4" class="handlegrip" />
	<path d="M179 12C179 8.68629 181.686 6 185 6H190C193.314 6 196 8.68629 196 12V39H179V12Z" fill="#C4C4C4" class="handlegrip" />
	<path d="M274.489 178.877L273.544 182.407C273.112 184.018 274.068 185.675 275.68 186.107C277.292 186.539 278.949 185.582 279.38 183.971L280.326 180.441C283.202 180.003 285.695 177.915 286.495 174.93C287.573 170.907 285.177 166.757 281.154 165.679C277.131 164.601 272.981 166.997 271.903 171.02C271.103 174.005 272.218 177.06 274.489 178.877ZM279.59 171.515C280.395 171.731 280.874 172.561 280.658 173.366C280.443 174.17 279.613 174.649 278.808 174.434C278.003 174.218 277.524 173.388 277.74 172.584C277.955 171.779 278.785 171.3 279.59 171.515Z" fill="#2A2A2A" class="mic-button" />
	<path d="M305.395 75.2106C288.506 70.6852 271.07 80.7433 266.542 97.6425C265.31 102.241 265.13 106.97 265.977 111.567L265.941 111.557C264.329 111.125 262.673 112.081 262.241 113.693L255.985 137.04C255.553 138.651 256.51 140.308 258.122 140.74L264.283 142.391L255.053 205.97C254.833 207.485 255.782 208.926 257.261 209.322L280.024 215.422C281.503 215.818 283.045 215.045 283.612 213.623L307.409 153.947L313.57 155.598C315.181 156.029 316.838 155.073 317.27 153.461L323.526 130.115C323.958 128.503 323.001 126.846 321.389 126.414L321.354 126.405C324.385 122.848 326.594 118.662 327.827 114.064C332.352 97.1745 322.294 79.7387 305.395 75.2106ZM296.584 119.768L298.93 111.013L306.225 112.967L303.879 121.722L296.584 119.768ZM283.451 116.249L285.797 107.494L293.093 109.449L290.747 118.204L283.451 116.249ZM277.325 89.5843L283.87 91.3381L281.524 100.093L272.816 97.7597C273.829 94.7025 275.378 91.9539 277.325 89.5843ZM289.707 92.9021L297.003 94.857L294.657 103.612L287.361 101.657L289.707 92.9021ZM300.493 105.176L302.839 96.4209L310.135 98.3758L307.789 107.131L300.493 105.176ZM315.972 99.9397L322.517 101.694C323.019 104.719 322.985 107.874 322.335 111.028L313.626 108.695L315.972 99.9397ZM320.376 94.864L304.403 90.5842L306.702 82.0067C312.875 84.4655 317.664 89.1515 320.376 94.864ZM300.865 80.4428L298.567 89.0203L282.594 84.7405C287.799 81.1494 294.29 79.4857 300.865 80.4428ZM271.59 103.687L279.96 105.93L277.615 114.685L272.618 113.346C271.654 110.203 271.31 106.938 271.59 103.687ZM278.994 208.89L261.418 204.181L270.16 143.966L301.531 152.372L278.994 208.89ZM312.215 148.979C300.564 145.857 272.264 138.274 262.604 135.685L267.296 118.176C276.927 120.756 306.868 128.779 316.907 131.469L312.215 148.979ZM309.716 123.286L312.062 114.531L320.433 116.774C319.05 119.73 317.119 122.386 314.712 124.625L309.716 123.286Z" fill="#2A2A2A" class="mic-skeleton" />
	<path d="M310.289 132.823L272.35 122.658C270.738 122.226 269.082 123.182 268.65 124.794L267.086 130.631C266.654 132.243 267.611 133.899 269.222 134.331C270.834 134.763 272.491 133.807 272.923 132.195L273.705 129.276L305.806 137.878L305.024 140.796C304.592 142.408 305.549 144.065 307.161 144.497C308.772 144.928 310.429 143.972 310.861 142.36L312.425 136.524C312.857 134.912 311.9 133.255 310.289 132.823Z" fill="#2A2A2A" class="mic-element" />
</svg>
